<?xml version="1.0" encoding="UTF-8" standalone="no"?><svg xmlns="http://www.w3.org/2000/svg" xmlns:xlink="http://www.w3.org/1999/xlink" contentScriptType="application/ecmascript" contentStyleType="text/css" height="513px" preserveAspectRatio="none" style="width:664px;height:513px;" version="1.1" viewBox="0 0 664 513" width="664px" zoomAndPan="magnify"><defs><filter height="300%" id="f1hdscydc7rez8" width="300%" x="-1" y="-1"><feGaussianBlur result="blurOut" stdDeviation="2.0"/><feColorMatrix in="blurOut" result="blurOut2" type="matrix" values="0 0 0 0 0 0 0 0 0 0 0 0 0 0 0 0 0 0 .4 0"/><feOffset dx="4.0" dy="4.0" in="blurOut2" result="blurOut3"/><feBlend in="SourceGraphic" in2="blurOut3" mode="normal"/></filter></defs><g><!--entity n1378--><rect fill="#FEFECE" filter="url(#f1hdscydc7rez8)" height="65.2188" style="stroke: #A80036; stroke-width: 1.5;" width="347" x="6" y="294"/><rect fill="#FEFECE" height="10" style="stroke: #A80036; stroke-width: 1.5;" width="15" x="333" y="299"/><rect fill="#FEFECE" height="2" style="stroke: #A80036; stroke-width: 1.5;" width="4" x="331" y="301"/><rect fill="#FEFECE" height="2" style="stroke: #A80036; stroke-width: 1.5;" width="4" x="331" y="305"/><text fill="#000000" font-family="sans-serif" font-size="14" font-style="italic" lengthAdjust="spacingAndGlyphs" textLength="299" x="25" y="328.5332">«Container Directory File Java Layer Package»</text><text fill="#000000" font-family="sans-serif" font-size="14" lengthAdjust="spacingAndGlyphs" textLength="307" x="21" y="346.1426">org.springframework.samples.petclinic.repository</text><!--entity n1768--><rect fill="#FEFECE" filter="url(#f1hdscydc7rez8)" height="65.2188" style="stroke: #A80036; stroke-width: 1.5;" width="339" x="314" y="8"/><rect fill="#FEFECE" height="10" style="stroke: #A80036; stroke-width: 1.5;" width="15" x="633" y="13"/><rect fill="#FEFECE" height="2" style="stroke: #A80036; stroke-width: 1.5;" width="4" x="631" y="15"/><rect fill="#FEFECE" height="2" style="stroke: #A80036; stroke-width: 1.5;" width="4" x="631" y="19"/><text fill="#000000" font-family="sans-serif" font-size="14" font-style="italic" lengthAdjust="spacingAndGlyphs" textLength="299" x="329" y="42.5332">«Container Directory File Java Layer Package»</text><text fill="#000000" font-family="sans-serif" font-size="14" lengthAdjust="spacingAndGlyphs" textLength="269" x="344" y="60.1426">org.springframework.samples.petclinic.web</text><!--entity n1657--><rect fill="#FEFECE" filter="url(#f1hdscydc7rez8)" height="65.2188" style="stroke: #A80036; stroke-width: 1.5;" width="339" x="175" y="151"/><rect fill="#FEFECE" height="10" style="stroke: #A80036; stroke-width: 1.5;" width="15" x="494" y="156"/><rect fill="#FEFECE" height="2" style="stroke: #A80036; stroke-width: 1.5;" width="4" x="492" y="158"/><rect fill="#FEFECE" height="2" style="stroke: #A80036; stroke-width: 1.5;" width="4" x="492" y="162"/><text fill="#000000" font-family="sans-serif" font-size="14" font-style="italic" lengthAdjust="spacingAndGlyphs" textLength="299" x="190" y="185.5332">«Container Directory File Java Layer Package»</text><text fill="#000000" font-family="sans-serif" font-size="14" lengthAdjust="spacingAndGlyphs" textLength="289" x="195" y="203.1426">org.springframework.samples.petclinic.service</text><!--entity n1066--><rect fill="#FEFECE" filter="url(#f1hdscydc7rez8)" height="65.2188" style="stroke: #A80036; stroke-width: 1.5;" width="339" x="254" y="437"/><rect fill="#FEFECE" height="10" style="stroke: #A80036; stroke-width: 1.5;" width="15" x="573" y="442"/><rect fill="#FEFECE" height="2" style="stroke: #A80036; stroke-width: 1.5;" width="4" x="571" y="444"/><rect fill="#FEFECE" height="2" style="stroke: #A80036; stroke-width: 1.5;" width="4" x="571" y="448"/><text fill="#000000" font-family="sans-serif" font-size="14" font-style="italic" lengthAdjust="spacingAndGlyphs" textLength="299" x="269" y="471.5332">«Container Directory File Java Layer Package»</text><text fill="#000000" font-family="sans-serif" font-size="14" lengthAdjust="spacingAndGlyphs" textLength="282" x="277.5" y="489.1426">org.springframework.samples.petclinic.model</text><!--link n1768 to n1657--><path d="M452.306,73.143 C430.576,95.186 401.581,124.598 379.134,147.367 " fill="none" id="n1768-n1657" style="stroke: #A80036; stroke-width: 1.0;"/><polygon fill="#A80036" points="375.59,150.962,384.7564,147.3597,379.0997,147.4008,379.0586,141.7441,375.59,150.962" style="stroke: #A80036; stroke-width: 1.0;"/><text fill="#000000" font-family="sans-serif" font-size="13" lengthAdjust="spacingAndGlyphs" textLength="89" x="423.5" y="117.4951">DEPENDS_ON</text><!--link n1657 to n1378--><path d="M307.471,216.143 C281.57,238.276 246.975,267.84 220.284,290.648 " fill="none" id="n1657-n1378" style="stroke: #A80036; stroke-width: 1.0;"/><polygon fill="#A80036" points="216.406,293.962,225.8467,291.1559,220.2071,290.7137,220.6494,285.0742,216.406,293.962" style="stroke: #A80036; stroke-width: 1.0;"/><text fill="#000000" font-family="sans-serif" font-size="13" lengthAdjust="spacingAndGlyphs" textLength="89" x="273.5" y="260.4951">DEPENDS_ON</text><!--link n1657 to n1066--><path d="M359.791,216.299 C363.956,225.721 368.219,236.154 371.5,246 C392.812,309.961 408.745,387.059 417.048,431.6626 " fill="none" id="n1657-n1066" style="stroke: #A80036; stroke-width: 1.0;"/><polygon fill="#A80036" points="417.974,436.6722,420.2716,427.0951,417.0652,431.7555,412.4048,428.5491,417.974,436.6722" style="stroke: #A80036; stroke-width: 1.0;"/><text fill="#000000" font-family="sans-serif" font-size="13" lengthAdjust="spacingAndGlyphs" textLength="89" x="403.5" y="331.9951">DEPENDS_ON</text><!--link n1378 to n1066--><path d="M228.129,359.141 C251.564,374.079 280.226,391.9 306.5,407 C322.595,416.25 340.2,425.7951 356.755,434.525 " fill="none" id="n1378-n1066" style="stroke: #A80036; stroke-width: 1.0;"/><polygon fill="#A80036" points="361.394,436.9648,355.2899,429.2356,356.9686,434.6377,351.5665,436.3163,361.394,436.9648" style="stroke: #A80036; stroke-width: 1.0;"/><text fill="#000000" font-family="sans-serif" font-size="13" lengthAdjust="spacingAndGlyphs" textLength="89" x="307.5" y="403.4951">DEPENDS_ON</text><!--link n1768 to n1066--><path d="M506.029,73.259 C511.771,82.506 517.456,92.857 521.5,103 C540.175,149.832 536.704,165.851 531.5,216 C524.798,280.592 527.556,299.518 501.5,359 C489.823,385.657 471.017,412.3234 454.797,432.6662 " fill="none" id="n1768-n1066" style="stroke: #A80036; stroke-width: 1.0;"/><polygon fill="#A80036" points="451.59,436.6485,460.3502,432.1476,454.726,432.7542,454.1194,427.13,451.59,436.6485" style="stroke: #A80036; stroke-width: 1.0;"/><text fill="#000000" font-family="sans-serif" font-size="13" lengthAdjust="spacingAndGlyphs" textLength="89" x="530.5" y="260.4951">DEPENDS_ON</text><!--
@startuml
skinparam componentStyle uml2
  [org.springframework.samples.petclinic.repository] <<Container Directory File Java Layer Package>> as n1378
  [org.springframework.samples.petclinic.web] <<Container Directory File Java Layer Package>> as n1768
  [org.springframework.samples.petclinic.service] <<Container Directory File Java Layer Package>> as n1657
  [org.springframework.samples.petclinic.model] <<Container Directory File Java Layer Package>> as n1066

n1768 - -> n1657 : DEPENDS_ON
n1657 - -> n1378 : DEPENDS_ON
n1657 - -> n1066 : DEPENDS_ON
n1378 - -> n1066 : DEPENDS_ON
n1768 - -> n1066 : DEPENDS_ON

@enduml

PlantUML version 1.2017.18(Fri Oct 06 18:56:32 CEST 2017)
(GPL source distribution)
Java Runtime: Java(TM) SE Runtime Environment
JVM: Java HotSpot(TM) 64-Bit Server VM
Java Version: 1.8.0_131-b11
Operating System: Windows 10
OS Version: 10.0
Default Encoding: Cp1252
Language: de
Country: DE
--></g></svg>